<?xml version="1.0" standalone="no"?>
<!DOCTYPE svg PUBLIC "-//W3C//DTD SVG 1.1//EN" "http://www.w3.org/Graphics/SVG/1.1/DTD/svg11.dtd" >
<svg>
<metadata>
Created by FontForge 20090622 at Wed Sep 14 16:29:00 2016
 By deploy user
Jan Kovarik
</metadata>
<defs>
<font id="GLYPHICONSHalflings-Regular" horiz-adv-x="1200" >
  <font-face 
    font-family="GLYPHICONS Halflings"
    font-weight="400"
    font-stretch="normal"
    units-per-em="1200"
    panose-1="0 0 5 0 0 0 0 0 0 0"
    ascent="960"
    descent="-240"
    bbox="-198 -74 1501 1304"
    underline-thickness="50"
    underline-position="-50"
    unicode-range="U+0020-U+E160"
  />
<missing-glyph horiz-adv-x="250" 
 />
    <glyph glyph-name=".notdef" horiz-adv-x="250" 
 />
    <glyph glyph-name=".null" horiz-adv-x="0" 
 />
    <glyph glyph-name="nonmarkingreturn" horiz-adv-x="400" 
 />
    <glyph glyph-name="space" unicode=" " 
 />
    <glyph glyph-name="asterisk" unicode="*" 
d="M841 700h259v-200h-259l183 -183l-141 -141l-183 183v-259h-200v259l-183 -183l-141 141l183 183h-259v200h259l-183 183l141 141l183 -183v259h200v-259l183 183l141 -141z" />
    <glyph glyph-name="plus" unicode="+" 
d="M700 700h400v-300h-400v-400h-300v400h-400v300h400v400h300v-400z" />
    <glyph glyph-name="Euro" unicode="&#x20ac;" 
d="M800 500h-300q9 -74 33 -132t52.5 -91t62 -54.5t59 -29t46.5 -7.5q29 0 66 13t75 37t63.5 67.5t25.5 96.5h174q-31 -172 -128 -278q-107 -117 -274 -117q-207 0 -324 158q-36 46 -69 131.5t-45 205.5h-217l100 100h113q0 47 5 100h-218l100 100h135q37 167 112 257
q117 141 297 141q242 0 354 -189q60 -103 66 -209h-181q0 55 -25.5 99t-63.5 68t-75 36.5t-67 12.5q-24 0 -52.5 -10t-63 -32t-65.5 -67t-50 -107h379l-100 -100h-300q-6 -47 -6 -100h406z" />
    <glyph glyph-name="minus" unicode="&#x2212;" 
d="M200 400h900v300h-900v-300z" />
    <glyph glyph-name="uni2709" unicode="&#x2709;" 
d="M0 1100l600 -603l600 603h-1200zM0 300v600l300 -300zM1200 300l-300 300l300 300v-600zM400 500l200 -200l200 200l400 -400h-1200z" />
    <glyph glyph-name="uni270F" unicode="&#x270f;" 
d="M981 1200l-94 -97l214 -214l99 92q13 13 13 33t-13 33l-153 153q-15 13 -33 13t-33 -13zM801 1017l-614 -614l214 -214l614 614zM320 99l-223 223l-110 -335z" />
    <glyph glyph-name="glass" unicode="&#xe001;" 
d="M1200 1200l-500 -550v-550h300v-100h-800v100h300v550l-500 550h1200z" />
    <glyph glyph-name="music" unicode="&#xe002;" 
d="M1000 934v-521q-64 16 -138 -7q-79 -26 -122.5 -83t-25.5 -111q18 -55 86 -75.5t147 4.5q70 23 111.5 63.5t41.5 95.5v881q0 10 -7 15.5t-17 2.5l-752 -193q-10 -3 -17 -12.5t-7 -19.5v-689q-64 17 -138 -7q-79 -25 -122.5 -82t-25.5 -112t86 -75.5t147 5.5q65 21 109 69
t44 90v606z" />
    <glyph glyph-name="search" unicode="&#xe003;" 
d="M913 432l300 -300q7 -8 7 -18t-7 -18l-109 -109q-8 -7 -18 -7t-18 7l-300 300q-119 -78 -261 -78q-200 0 -342 142t-142 342t142 342t342 142t342 -142t142 -342q0 -142 -78 -261zM176 693q0 -136 97 -233t234 -97t233.5 96.5t96.5 233.5t-96.5 233.5t-233.5 96.5
t-234 -97t-97 -233z" />
    <glyph glyph-name="heart" unicode="&#xe005;" 
d="M649 949q48 69 109.5 105t121.5 38t118.5 -20.5t102.5 -64t71 -100.5t27 -123q0 -57 -33.5 -117.5t-94 -124.5l-126.5 -127.5t-150 -152.5t-146 -174q-62 85 -145.5 174t-149.5 152.5l-126.5 127.5t-94 124.5t-33.5 117.5q0 64 28 123t73 100.5t104.5 64t119 20.5
t120 -38.5t104.5 -104.5z" />
    <glyph glyph-name="star" unicode="&#xe006;" 
d="M1173 800l-382 -278l145 -449l-384 275l-382 -275l146 447l-388 280h479l146 400h2l146 -400h472z" />
    <glyph glyph-name="starempty" unicode="&#xe007;" 
d="M1173 800l-382 -278l145 -449l-384 275l-382 -275l146 447l-388 280h479l146 400h2l146 -400h472zM552 472l195 -141l-74 229l193 140h-235l-77 211l-78 -211h-239l196 -142l-73 -226z" />
    <glyph glyph-name="user" unicode="&#xe008;" 
d="M800 500v-100l400 -257v-143h-1200v143l400 257v100q-37 0 -68.5 74.5t-31.5 125.5v200q0 124 88 212t212 88t212 -88t88 -212v-200q0 -51 -31.5 -125.5t-68.5 -74.5z" />
    <glyph glyph-name="film" unicode="&#xe009;" 
d="M0 0v1100h1200v-1100h-1200zM100 900h100v100h-100v-100zM300 600h600v400h-600v-400zM1000 900h100v100h-100v-100zM100 700h100v100h-100v-100zM1000 700h100v100h-100v-100zM100 500h100v100h-100v-100zM1000 500h100v100h-100v-100zM300 100h600v400h-600v-400z
M100 300h100v100h-100v-100zM1000 300h100v100h-100v-100zM100 100h100v100h-100v-100zM1000 100h100v100h-100v-100z" />
    <glyph glyph-name="thlarge" unicode="&#xe010;" 
d="M50 1100h400q21 0 35.5 -14.5t14.5 -35.5v-400q0 -21 -14.5 -35.5t-35.5 -14.5h-400q-21 0 -35.5 14.5t-14.5 35.5v400q0 21 14.5 35.5t35.5 14.5zM650 1100h400q21 0 35.5 -14.5t14.5 -35.5v-400q0 -21 -14.5 -35.5t-35.5 -14.5h-400q-21 0 -35.5 14.5t-14.5 35.5v400
q0 21 14.5 35.5t35.5 14.5zM50 500h400q21 0 35.5 -14.5t14.5 -35.5v-400q0 -21 -14.5 -35.5t-35.5 -14.5h-400q-21 0 -35.5 14.5t-14.5 35.5v400q0 21 14.5 35.5t35.5 14.5zM650 500h400q21 0 35.5 -14.5t14.5 -35.5v-400q0 -21 -14.5 -35.5t-35.5 -14.5h-400
q-21 0 -35.5 14.5t-14.5 35.5v400q0 21 14.5 35.5t35.5 14.5z" />
    <glyph glyph-name="th" unicode="&#xe011;" 
d="M50 1100h200q21 0 35.5 -14.5t14.5 -35.5v-200q0 -21 -14.5 -35.5t-35.5 -14.5h-200q-21 0 -35.5 14.5t-14.5 35.5v200q0 21 14.5 35.5t35.5 14.5zM450 1100h200q21 0 35.5 -14.5t14.5 -35.5v-200q0 -21 -14.5 -35.5t-35.5 -14.5h-200q-21 0 -35.5 14.5t-14.5 35.5v200
q0 21 14.5 35.5t35.5 14.5zM850 1100h200q21 0 35.5 -14.5t14.5 -35.5v-200q0 -21 -14.5 -35.5t-35.5 -14.5h-200q-21 0 -35.5 14.5t-14.5 35.5v200q0 21 14.5 35.5t35.5 14.5zM50 700h200q21 0 35.5 -14.5t14.5 -35.5v-200q0 -21 -14.5 -35.5t-35.5 -14.5h-200
q-21 0 -35.5 14.5t-14.5 35.5v200q0 21 14.5 35.5t35.5 14.5zM450 700h200q21 0 35.5 -14.5t14.5 -35.5v-200q0 -21 -14.5 -35.5t-35.5 -14.5h-200q-21 0 -35.5 14.5t-14.5 35.5v200q0 21 14.5 35.5t35.5 14.5zM850 700h200q21 0 35.5 -14.5t14.5 -35.5v-200
q0 -21 -14.5 -35.5t-35.5 -14.5h-200q-21 0 -35.5 14.5t-14.5 35.5v200q0 21 14.5 35.5t35.5 14.5zM50 300h200q21 0 35.5 -14.5t14.5 -35.5v-200q0 -21 -14.5 -35.5t-35.5 -14.5h-200q-21 0 -35.5 14.5t-14.5 35.5v200q0 21 14.5 35.5t35.5 14.5zM450 300h200
q21 0 35.5 -14.5t14.5 -35.5v-200q0 -21 -14.5 -35.5t-35.5 -14.5h-200q-21 0 -35.5 14.5t-14.5 35.5v200q0 21 14.5 35.5t35.5 14.5zM850 300h200q21 0 35.5 -14.5t14.5 -35.5v-200q0 -21 -14.5 -35.5t-35.5 -14.5h-200q-21 0 -35.5 14.5t-14.5 35.5v200q0 21 14.5 35.5
t35.5 14.5z" />
    <glyph glyph-name="thlist" unicode="&#xe012;" 
d="M50 1100h200q21 0 35.5 -14.5t14.5 -35.5v-200q0 -21 -14.5 -35.5t-35.5 -14.5h-200q-21 0 -35.5 14.5t-14.5 35.5v200q0 21 14.5 35.5t35.5 14.5zM450 1100h700q21 0 35.5 -14.5t14.5 -35.5v-200q0 -21 -14.5 -35.5t-35.5 -14.5h-700q-21 0 -35.5 14.5t-14.5 35.5v200
q0 21 14.5 35.5t35.5 14.5zM50 400h200q21 0 35.5 14.5t14.5 35.5v200q0 21 -14.5 35.5t-35.5 14.5h-200q-21 0 -35.5 -14.5t-14.5 -35.5v-200q0 -21 14.5 -35.5t35.5 -14.5zM450 700h700q21 0 35.5 -14.5t14.5 -35.5v-200q0 -21 -14.5 -35.5t-35.5 -14.5h-700
q-21 0 -35.5 14.5t-14.5 35.5v200q0 21 14.5 35.5t35.5 14.5zM50 300h200q21 0 35.5 -14.5t14.5 -35.5v-200q0 -21 -14.5 -35.5t-35.5 -14.5h-200q-21 0 -35.5 14.5t-14.5 35.5v200q0 21 14.5 35.5t35.5 14.5zM450 300h700q21 0 35.5 -14.5t14.5 -35.5v-200
q0 -21 -14.5 -35.5t-35.5 -14.5h-700q-21 0 -35.5 14.5t-14.5 35.5v200q0 21 14.5 35.5t35.5 14.5z" />
    <glyph glyph-name="ok" unicode="&#xe013;" 
d="M241 666l-212 -212l419 -420l818 820l-212 212l-607 -607z" />
    <glyph glyph-name="remove" unicode="&#xe014;" 
d="M812 600l282 -282l-212 -212l-282 282l-282 -282l-212 212l282 282l-282 282l212 212l282 -282l282 282l212 -212z" />
    <glyph glyph-name="zoomin" unicode="&#xe015;" 
d="M913 432l300 -300q7 -8 7 -18t-7 -18l-109 -109q-8 -7 -18 -7t-18 7l-300 300q-119 -78 -261 -78q-200 0 -342 142t-142 342t142 342t342 142t342 -142t142 -342q0 -142 -78 -261zM507 363q137 0 233.5 96.5t96.5 233.5t-96.5 233.5t-233.5 96.5t-234 -97t-97 -233
t97 -233t234 -97zM400 900h200v-100h100v-200h-100v-100h-200v100h-100v200h100v100z" />
    <glyph glyph-name="zoomout" unicode="&#xe016;" 
d="M913 432l300 -299q7 -7 7 -18t-7 -18l-109 -109q-8 -8 -18 -8t-18 8l-300 299q-120 -77 -261 -77q-200 0 -342 142t-142 342t142 342t342 142t342 -142t142 -342q0 -141 -78 -262zM176 694q0 -136 97 -233t234 -97t233.5 97t96.5 233t-96.5 233t-233.5 97t-234 -97
t-97 -233zM700 601v200h-400v-200h400z" />
    <glyph glyph-name="off" unicode="&#xe017;" 
d="M550 700h100q21 0 35.5 14.5t14.5 35.5v400q0 21 -14.5 35.5t-35.5 14.5h-100q-21 0 -35.5 -14.5t-14.5 -35.5v-400q0 -21 14.5 -35.5t35.5 -14.5zM800 975v166q167 -62 272 -210t105 -331q0 -118 -45.5 -224.5t-123 -184t-184 -123t-224.5 -45.5t-224.5 45.5t-184 123
t-123 184t-45.5 224.5q0 183 105 331t272 210v-166q-103 -55 -165 -155t-62 -220q0 -177 125 -302t302 -125t302 125t125 302q0 120 -62 220t-165 155z" />
    <glyph glyph-name="signal" unicode="&#xe018;" 
d="M1000 1201h200v-1200h-200v1200zM700 801h200v-800h-200v800zM400 501h200v-500h-200v500zM100 1h200v300h-200v-300z" />
    <glyph glyph-name="cog" unicode="&#xe019;" 
d="M488 183l38 -151q40 -5 74 -5q27 0 74 5l38 151l6 2q46 13 93 39l5 3l134 -81q56 44 104 105l-80 134l3 5q24 44 39 93l1 6l152 38q5 40 5 74q0 28 -5 73l-152 38l-1 6q-16 51 -39 93l-3 5l80 134q-44 58 -104 105l-134 -81l-5 3q-45 25 -93 39l-6 1l-38 152q-40 5 -74 5
q-27 0 -74 -5l-38 -152l-5 -1q-50 -14 -94 -39l-5 -3l-133 81q-59 -47 -105 -105l80 -134l-3 -5q-25 -47 -38 -93l-2 -6l-151 -38q-6 -48 -6 -73q0 -33 6 -74l151 -38l2 -6q14 -49 38 -93l3 -5l-80 -134q45 -59 105 -105l133 81l5 -3q45 -26 94 -39zM600 815q89 0 152 -63
t63 -151q0 -89 -63 -152t-152 -63t-152 63t-63 152q0 88 63 151t152 63z" />
    <glyph glyph-name="trash" unicode="&#xe020;" 
d="M900 1100h275q10 0 17.5 -7.5t7.5 -17.5v-50q0 -11 -7 -18t-18 -7h-1050q-11 0 -18 7t-7 18v50q0 10 7.5 17.5t17.5 7.5h275v100q0 41 29.5 70.5t70.5 29.5h300q41 0 70.5 -29.5t29.5 -70.5v-100zM500 1100h300v100h-300v-100zM1000 -1h-700q-41 0 -70.5 30t-29.5 71v800
h900v-800q0 -41 -29.5 -71t-70.5 -30zM400 800h-100v-700h100v700zM600 800h-100v-700h100v700zM800 800h-100v-700h100v700zM1000 800h-100v-700h100v700z" />
    <glyph glyph-name="home" unicode="&#xe021;" 
d="M1 601l656 644l644 -644h-200v-600h-300v400h-300v-400h-300v600h-200z" />
    <glyph glyph-name="file" unicode="&#xe022;" 
d="M125 1200h475v-500h400v-675q0 -11 -7 -18t-18 -7h-850q-11 0 -18 7t-7 18v1150q0 11 7 18t18 7zM700 800v300l300 -300h-300z" />
    <glyph glyph-name="time" unicode="&#xe023;" 
d="M600 1177q118 0 224.5 -45.5t184 -123t123 -184t45.5 -224.5t-45.5 -224.5t-123 -184t-184 -123t-224.5 -45.5t-224.5 45.5t-184 123t-123 184t-45.5 224.5t45.5 224.5t123 184t184 123t224.5 45.5zM600 173q177 0 302 125.5t125 301.5q0 177 -125 302t-302 125
t-302 -125t-125 -302q0 -176 125 -301.5t302 -125.5zM500 900h100v-300h200v-100h-300v400z" />
    <glyph glyph-name="road" unicode="&#xe024;" 
d="M1300 0h-538l-41 400h-242l-40 -400h-539l431 1200h209l-21 -300h162l-20 300h208zM515 800l-27 -300h224l-27 300h-170z" />
    <glyph glyph-name="downloadalt" unicode="&#xe025;" 
d="M900 700l-290 -300h490v-400h-1100v400h490l-290 300h200v500h300v-500h200zM813 200h175v100h-175v-100z" />
    <glyph glyph-name="download" unicode="&#xe026;" 
d="M600 1177q118 0 224.5 -45.5t184 -123t123 -184t45.5 -224.5t-45.5 -224.5t-123 -184t-184 -123t-224.5 -45.5t-224.5 45.5t-184 123t-123 184t-45.5 224.5t45.5 224.5t123 184t184 123t224.5 45.5zM600 173q177 0 302 125.5t125 301.5q0 177 -125 302t-302 125
t-302 -125t-125 -302q0 -176 125 -301.5t302 -125.5zM500 900h200v-300h150l-250 -300l-250 300h150v300z" />
    <glyph glyph-name="upload" unicode="&#xe027;" 
d="M600 1177q118 0 224.5 -45.5t184 -123t123 -184t45.5 -224.5t-45.5 -224.5t-123 -184t-184 -123t-224.5 -45.5t-224.5 45.5t-184 123t-123 184t-45.5 224.5t45.5 224.5t123 184t184 123t224.5 45.5zM600 173q177 0 302 125.5t125 301.5q0 177 -125 302t-302 125
t-302 -125t-125 -302q0 -176 125 -301.5t302 -125.5zM700 300v300h150l-250 300l-250 -300h150v-300h200z" />
    <glyph glyph-name="inbox" unicode="&#xe028;" 
d="M1175 0h-1150q-11 0 -18 7t-7 18v475l200 700h800q199 -700 200 -700v-475q0 -11 -7 -18t-18 -7zM800 500h200l-97 500h-606l-97 -500h200l50 -200h300z" />
    <glyph glyph-name="playcircle" unicode="&#xe029;" 
d="M600 1177q118 0 224.5 -45.5t184 -123t123 -184t45.5 -224.5t-45.5 -224.5t-123 -184t-184 -123t-224.5 -45.5t-224.5 45.5t-184 123t-123 184t-45.5 224.5t45.5 224.5t123 184t184 123t224.5 45.5zM600 1028q-177 0 -302 -125t-125 -302q0 -176 125 -301.5t302 -125.5
t302 125.5t125 301.5q0 177 -125 302t-302 125zM500 397v401l297 -200z" />
    <glyph glyph-name="repeat" unicode="&#xe030;" 
d="M1100 1200l-145 -145q-157 122 -355 122q-118 0 -224.5 -45.5t-184 -123t-123 -184t-45.5 -224.5t45.5 -224.5t123 -184t184 -123t224.5 -45.5t224.5 45.5t184 123t123 184t45.5 224.5h-150q0 -177 -125 -302t-302 -125t-302 125t-125 302t125 302t302 125q136 0 246 -81
l-146 -146h400v400z" />
    <glyph glyph-name="refresh" unicode="&#xe031;" 
d="M700 800l147 147q-112 80 -247 80q-177 0 -302 -125t-125 -302h-150q0 118 45.5 224.5t123 184t184 123t224.5 45.5q198 0 355 -122l145 145v-400h-400zM500 400l-147 -147q112 -80 247 -80q177 0 302 125t125 302h150q0 -118 -45.5 -224.5t-123 -184t-184 -123
t-224.5 -45.5q-198 0 -355 122l-145 -145v400h400z" />
    <glyph glyph-name="listalt" unicode="&#xe032;" 
d="M1200 0v1200h-1100v-1200h1100zM200 1000h900v-900h-900v900zM300 900h100v-100h-100v100zM500 900h500v-100h-500v100zM300 700h100v-100h-100v100zM500 700h500v-100h-500v100zM300 500h100v-100h-100v100zM500 500h500v-100h-500v100zM300 300h100v-100h-100v100z
M500 200h500v100h-500v-100z" />
    <glyph glyph-name="lock" unicode="&#xe033;" 
d="M900 800h100q41 0 70.5 -29.5t29.5 -70.5v-600q0 -41 -29.5 -70.5t-70.5 -29.5h-900q-41 0 -70.5 29.5t-29.5 70.5v600q0 41 29.5 70.5t70.5 29.5h100v200q0 82 59 141t141 59h300q82 0 141 -59t59 -141v-200zM650 1000h-200q-21 0 -35.5 -14.5t-14.5 -35.5v-150h300v150
q0 21 -14.5 35.5t-35.5 14.5z" />
    <glyph glyph-name="flag" unicode="&#xe034;" 
d="M100 1100h100v-1100h-100v1100zM1100 1100q-40 -81 -101.5 -115.5t-127.5 -29.5t-138 25l-139.5 40t-125.5 25t-103 -29.5t-65 -115.5v-500q60 60 127.5 84t127.5 17.5t122 -23t119 -30t110 -11t103 42t91 120.5v500z" />
    <glyph glyph-name="headphones" unicode="&#xe035;" 
d="M1200 550v25q0 116 -49.5 227t-131 192.5t-192.5 131t-227 49.5t-227 -49.5t-192.5 -131t-131 -192.5t-49.5 -227v-300q0 -11 7 -18t18 -7h50q11 0 18 7t7 18v300q0 127 70.5 231.5t184.5 161.5t245 57t245 -57t184.5 -161.5t70.5 -231.5v-300q0 -11 7 -18t18 -7h50
q11 0 18 7t7 18v275zM220 500h160q8 0 14 -6t6 -14v-460q0 -8 -6 -14t-14 -6h-160q-8 0 -14 6t-6 14v460q0 8 6 14t14 6zM820 500h160q8 0 14 -6t6 -14v-460q0 -8 -6 -14t-14 -6h-160q-8 0 -14 6t-6 14v460q0 8 6 14t14 6z" />
    <glyph glyph-name="volumeoff" unicode="&#xe036;" 
d="M600 1000l-300 -200h-300v-400h300l300 -200v800zM1041 812l71 -71l-141 -141l141 -141l-71 -71l-141 141l-141 -141l-71 71l141 141l-141 141l71 71l141 -141z" />
    <glyph glyph-name="volumedown" unicode="&#xe037;" 
d="M600 1000l-300 -200h-300v-400h300l300 -200v800zM700 857l69 53q111 -135 111 -310q0 -169 -106 -302l-67 54q86 110 86 248q0 146 -93 257z" />
    <glyph glyph-name="volumeup" unicode="&#xe038;" 
d="M974 186l6 8q142 178 142 405q0 230 -144 408l-6 8l-83 -64l7 -8q123 -151 123 -344q0 -189 -119 -339l-7 -8zM0 401v400h300l300 200v-800l-300 200h-300zM776 298l-67 55q86 108 86 248q0 145 -93 257l69 53q111 -135 111 -310q0 -170 -106 -303z" />
    <glyph glyph-name="qrcode" unicode="&#xe039;" 
d="M0 600h100v100h400v100h100v100h-100v300h-500v-600zM1000 600v100h200v500h-600v-200h100v-300h200v-300h300v200h-200zM400 800h-300v300h300v-300zM1100 1100v-300h-300v300h300zM300 1000h-100v-100h100v100zM1000 900h-100v100h100v-100zM500 500h-200v100h-100
v-100h-200v-500h500v500zM1000 300v-100h-100v-100h-200v100h-100v100h100v200h-200v100h300v-300h200zM100 100v300h300v-300h-300zM200 300h100v-100h-100v100zM1200 200h-100v100h100v-100zM700 0h-100v100h100v-100zM900 0v100h300v-100h-300z" />
    <glyph glyph-name="barcode" unicode="&#xe040;" 
d="M0 200h100v1000h-100v-1000zM200 1200h100v-1000h-100v1000zM500 1200h200v-1000h-200v1000zM800 1200h100v-1000h-100v1000zM1000 1200h200v-1000h-200v1000zM100 0v100h300v-100h-300zM600 0h-100v91h100v-91zM800 0h-100v91h100v-91zM900 0v91h200v-91h-200z" />
    <glyph glyph-name="tag" unicode="&#xe041;" 
d="M26 1200h474l700 -700l-500 -500l-699 700v475q0 10 7.5 17.5t17.5 7.5zM320 882q29 29 29 71t-29 71q-30 30 -71.5 30t-71.5 -30q-29 -29 -29 -71t29 -71q30 -30 71.5 -30t71.5 30z" />
    <glyph glyph-name="tags" unicode="&#xe042;" 
d="M27 1200h474l700 -700l-500 -500l-699 700v475q0 11 7 18t18 7zM701 1200h100l700 -700l-500 -500l-50 50l450 450zM320 882q30 29 30 71t-30 71q-29 30 -71 30t-71 -30q-30 -29 -30 -71t30 -71q29 -30 71 -30t71 30z" />
    <glyph glyph-name="book" unicode="&#xe043;" 
d="M100 1025l175 175h925v-1000l-100 -100v1000h-750l-100 -100h750v-1000h-900v1025z" />
    <glyph glyph-name="bookmark" unicode="&#xe044;" 
d="M1050 1201h-800q-21 0 -35.5 -15t-14.5 -35v-1151l450 444l450 -443v1150q0 20 -14.5 35t-35.5 15z" />
    <glyph glyph-name="print" unicode="&#xe045;" 
d="M885 705l62 124l-94 346q-2 11 -10 18t-18 7h-450q-10 0 -18 -7t-10 -18l-94 -346l40 -124h592zM900 600l100 200h200v-700h-200v200h-800v-200h-200v700h200l100 -200h600zM350 200h500q10 0 19.5 -7t11.5 -17l38 -152q2 -10 -3.5 -17t-15.5 -7h-600q-10 0 -15.5 7
t-3.5 17l38 152q2 10 11.5 17t19.5 7z" />
    <glyph glyph-name="camera" unicode="&#xe046;" 
d="M1200 200v600q0 41 -29.5 70.5t-70.5 29.5h-150q-4 8 -11.5 21.5t-33 48t-53 61t-69 48t-83.5 21.5h-200q-41 0 -82 -20.5t-70 -50t-52 -59t-34 -50.5l-12 -20h-150q-41 0 -70.5 -29.5t-29.5 -70.5v-600q0 -41 29.5 -70.5t70.5 -29.5h1000q41 0 70.5 29.5t29.5 70.5z
M900 800h100v-100h-100v100zM844 500q0 -100 -72 -172t-172 -72t-172 72t-72 172t72 172t172 72t172 -72t72 -172zM706 500q0 44 -31 75t-75 31t-75 -31t-31 -75t31 -75t75 -31t75 31t31 75z" />
    <glyph glyph-name="font" unicode="&#xe047;" 
d="M1200 0v66q-34 1 -74 43q-18 19 -33 42t-21 37l-6 13l-385 998h-93l-399 -1006q-24 -48 -52 -75q-12 -12 -33 -25t-36 -20l-15 -7v-66h365v66q-41 0 -72 11t-49 38t1 71l92 234h391l82 -222q16 -45 -5.5 -88.5t-74.5 -43.5v-66h417zM640 838l116 -317h-340l178 457z" />
    <glyph glyph-name="bold" unicode="&#xe048;" 
d="M100 1199h471q76 0 145.5 -37.5t115 -111.5t45.5 -167q0 -55 -11.5 -101.5t-28.5 -74t-33.5 -47.5t-27.5 -28l-12 -7q8 -3 21.5 -9t48 -31.5t60.5 -58t47.5 -91.5t21.5 -129q0 -84 -59 -156.5t-142 -111t-162 -38.5h-500v89q41 7 70.5 32.5t29.5 65.5v827q0 28 -1 39.5
t-5.5 26t-15.5 21t-29 13.5t-49 14v71zM400 1079v-379h139q76 0 130 61.5t54 138.5q0 82 -84 130.5t-239 48.5zM400 200h161q89 0 153 48.5t64 132.5q0 90 -62.5 154.5t-156.5 64.5h-159v-400z" />
    <glyph glyph-name="italic" unicode="&#xe049;" 
d="M877 1200l2 -57q-33 -8 -62 -25.5t-46 -37t-29.5 -38t-17.5 -30.5l-5 -12l-128 -825q-10 -52 14 -82t95 -36v-57h-500v57q77 7 134.5 40.5t65.5 80.5l173 849q10 56 -10 74t-91 37q-13 3 -20 5v57h425z" />
    <glyph glyph-name="textheight" unicode="&#xe050;" 
d="M450 1200h700h150v-300h-50q0 29 -8 48.5t-18.5 30t-33.5 15t-39.5 5.5t-50.5 1h-200v-850l100 -50v-100h-400v100l100 50v850h-200q-34 0 -50.5 -1t-40 -5.5t-33.5 -15t-18.5 -30t-8.5 -48.5h-49v300h150zM50 1167l125 -167h-75v-800h75l-125 -167l-125 167h75v800h-75z
" />
    <glyph glyph-name="textwidth" unicode="&#xe051;" 
d="M250 1201h700h150v-300h-50q0 29 -8 48.5t-18 30t-33.5 15t-40 5.5t-50.5 1h-200v-650l100 -50v-100h-400v100l100 50v650h-200q-34 0 -50.5 -1t-39.5 -5.5t-33.5 -15t-18.5 -30t-8 -48.5h-50v300h150zM33 51l167 125v-75h800v75l167 -125l-167 -125v75h-800v-75z" />
    <glyph glyph-name="alignleft" unicode="&#xe052;" 
d="M50 900h600q21 0 35.5 15t14.5 35v100q0 21 -14.5 35.5t-35.5 14.5h-600q-21 0 -35.5 -14.5t-14.5 -35.5v-100q0 -20 14.5 -35t35.5 -15zM50 600h1000q21 0 35.5 15t14.5 35v100q0 21 -14.5 35.5t-35.5 14.5h-1000q-21 0 -35.5 -14.5t-14.5 -35.5v-100q0 -20 14.5 -35
t35.5 -15zM50 300h800q21 0 35.5 15t14.5 35v100q0 21 -14.5 35.5t-35.5 14.5h-800q-21 0 -35.5 -14.5t-14.5 -35.5v-100q0 -20 14.5 -35t35.5 -15zM50 0h1100q21 0 35.5 15t14.5 35v100q0 21 -14.5 35.5t-35.5 14.5h-1100q-21 0 -35.5 -14.5t-14.5 -35.5v-100
q0 -20 14.5 -35t35.5 -15z" />
    <glyph glyph-name="aligncenter" unicode="&#xe053;" 
d="M250 900h700q21 0 35.5 15t14.5 35v100q0 21 -14.5 35.5t-35.5 14.5h-700q-21 0 -35.5 -14.5t-14.5 -35.5v-100q0 -20 14.5 -35t35.5 -15zM50 600h1100q21 0 35.5 15t14.5 35v100q0 21 -14.5 35.5t-35.5 14.5h-1100q-21 0 -35.5 -14.5t-14.5 -35.5v-100q0 -20 14.5 -35
t35.5 -15zM250 300h700q21 0 35.5 15t14.5 35v100q0 21 -14.5 35.5t-35.5 14.5h-700q-21 0 -35.5 -14.5t-14.5 -35.5v-100q0 -20 14.5 -35t35.5 -15zM50 0h1100q21 0 35.5 15t14.5 35v100q0 21 -14.5 35.5t-35.5 14.5h-1100q-21 0 -35.5 -14.5t-14.5 -35.5v-100
q0 -20 14.5 -35t35.5 -15z" />
    <glyph glyph-name="alignright" unicode="&#xe054;" 
d="M1150 900h-600q-21 0 -35.5 15t-14.5 35v100q0 21 14.5 35.5t35.5 14.5h600q21 0 35.5 -14.5t14.5 -35.5v-100q0 -20 -14.5 -35t-35.5 -15zM1150 600h-1000q-21 0 -35.5 15t-14.5 35v100q0 21 14.5 35.5t35.5 14.5h1000q21 0 35.5 -14.5t14.5 -35.5v-100q0 -20 -14.5 -35
t-35.5 -15zM1150 300h-800q-21 0 -35.5 15t-14.5 35v100q0 21 14.5 35.5t35.5 14.5h800q21 0 35.5 -14.5t14.5 -35.5v-100q0 -20 -14.5 -35t-35.5 -15zM1150 0h-1100q-21 0 -35.5 15t-14.5 35v100q0 21 14.5 35.5t35.5 14.5h1100q21 0 35.5 -14.5t14.5 -35.5v-100
q0 -20 -14.5 -35t-35.5 -15z" />
    <glyph glyph-name="alignjustify" unicode="&#xe055;" 
d="M1150 900h-1100q-21 0 -35.5 15t-14.5 35v100q0 21 14.5 35.5t35.5 14.5h1100q21 0 35.5 -14.5t14.5 -35.5v-100q0 -20 -14.5 -35t-35.5 -15zM1150 600h-1100q-21 0 -35.5 15t-14.5 35v100q0 21 14.5 35.5t35.5 14.5h1100q21 0 35.5 -14.5t14.5 -35.5v-100
q0 -20 -14.5 -35t-35.5 -15zM1150 300h-1100q-21 0 -35.5 15t-14.5 35v100q0 21 14.5 35.5t35.5 14.5h1100q21 0 35.5 -14.5t14.5 -35.5v-100q0 -20 -14.5 -35t-35.5 -15zM1150 0h-1100q-21 0 -35.5 15t-14.5 35v100q0 21 14.5 35.5t35.5 14.5h1100q21 0 35.5 -14.5
t14.5 -35.5v-100q0 -20 -14.5 -35t-35.5 -15z" />
    <glyph glyph-name="list" unicode="&#xe056;" 
d="M150 900h-100q-21 0 -35.5 15t-14.5 35v100q0 21 14.5 35.5t35.5 14.5h100q21 0 35.5 -14.5t14.5 -35.5v-100q0 -20 -14.5 -35t-35.5 -15zM1150 900h-800q-21 0 -35.5 15t-14.5 35v100q0 21 14.5 35.5t35.5 14.5h800q21 0 35.5 -14.5t14.5 -35.5v-100q0 -20 -14.5 -35
t-35.5 -15zM150 600h-100q-21 0 -35.5 15t-14.5 35v100q0 21 14.5 35.5t35.5 14.5h100q21 0 35.5 -14.5t14.5 -35.5v-100q0 -20 -14.5 -35t-35.5 -15zM1150 600h-800q-21 0 -35.5 15t-14.5 35v100q0 21 14.5 35.5t35.5 14.5h800q21 0 35.5 -14.5t14.5 -35.5v-100
q0 -20 -14.5 -35t-35.5 -15zM150 300h-100q-21 0 -35.5 15t-14.5 35v100q0 21 14.5 35.5t35.5 14.5h100q21 0 35.5 -14.5t14.5 -35.5v-100q0 -20 -14.5 -35t-35.5 -15zM1150 300h-800q-21 0 -35.5 15t-14.5 35v100q0 21 14.5 35.5t35.5 14.5h800q21 0 35.5 -14.5t14.5 -35.5
v-100q0 -20 -14.5 -35t-35.5 -15zM150 0h-100q-21 0 -35.5 15t-14.5 35v100q0 21 14.5 35.5t35.5 14.5h100q21 0 35.5 -14.5t14.5 -35.5v-100q0 -20 -14.5 -35t-35.5 -15zM1150 0h-800q-21 0 -35.5 15t-14.5 35v100q0 21 14.5 35.5t35.5 14.5h800q21 0 35.5 -14.5
t14.5 -35.5v-100q0 -20 -14.5 -35t-35.5 -15z" />
    <glyph glyph-name="indentleft" unicode="&#xe057;" 
d="M300 0h100v1100h-100v-1100zM550 900h100q20 0 35 15t15 35v100q0 21 -15 35.5t-35 14.5h-100q-21 0 -35.5 -14.5t-14.5 -35.5v-100q0 -20 14.5 -35t35.5 -15zM550 600h500q20 0 35 15t15 35v100q0 21 -15 35.5t-35 14.5h-500q-21 0 -35.5 -14.5t-14.5 -35.5v-100
q0 -20 14.5 -35t35.5 -15zM100 675l166 -125l-166 -125v75h-201v100h201v75zM550 300h300q20 0 35 15t15 35v100q0 21 -15 35.5t-35 14.5h-300q-21 0 -35.5 -14.5t-14.5 -35.5v-100q0 -20 14.5 -35t35.5 -15zM550 0h600q20 0 35 15t15 35v100q0 21 -15 35.5t-35 14.5h-600
q-21 0 -35.5 -14.5t-14.5 -35.5v-100q0 -20 14.5 -35t35.5 -15z" />
    <glyph glyph-name="indentright" unicode="&#xe058;" 
d="M51 900h100q20 0 35 15t15 35v100q0 21 -15 35.5t-35 14.5h-100q-21 0 -35.5 -14.5t-14.5 -35.5v-100q0 -20 14.5 -35t35.5 -15zM901 0h-100v1100h100v-1100zM51 600h500q20 0 35 15t15 35v100q0 21 -15 35.5t-35 14.5h-500q-21 0 -35.5 -14.5t-14.5 -35.5v-100
q0 -20 14.5 -35t35.5 -15zM1101 675l-167 -125l167 -125v75h200v100h-200v75zM51 300h300q20 0 35 15t15 35v100q0 21 -15 35.5t-35 14.5h-300q-21 0 -35.5 -14.5t-14.5 -35.5v-100q0 -20 14.5 -35t35.5 -15zM51 0h600q20 0 35 15t15 35v100q0 21 -15 35.5t-35 14.5h-600
q-21 0 -35.5 -14.5t-14.5 -35.5v-100q0 -20 14.5 -35t35.5 -15z" />
    <glyph glyph-name="facetimevideo" unicode="&#xe059;" 
d="M900 925v-650q0 -31 -22 -53t-53 -22h-750q-31 0 -53 22t-22 53v650q0 31 22 53t53 22h750q31 0 53 -22t22 -53zM900 600l300 300v-600z" />
    <glyph glyph-name="picture" unicode="&#xe060;" 
d="M44 1100h1112q19 0 31.5 -13t12.5 -31v-1012q0 -18 -12.5 -31t-31.5 -13h-1112q-18 0 -31 13t-13 31v1012q0 18 13 31t31 13zM864 788l236 -288v500h-1000v-737l247 182l298 -131l-74 156zM476 750q0 -56 -39 -95t-95 -39t-95 39t-39 95t39 95t95 39t95 -39t39 -95z" />
    <glyph glyph-name="mapmarker" unicode="&#xe062;" 
d="M1078 730q0 117 -57.5 218.5t-156.5 161t-216 59.5q-116 0 -215 -61t-156.5 -163.5t-57.5 -219.5q0 -116 60 -249q65 -114 158.5 -231.5t154.5 -178.5l61 -61l59.5 69t132 167t163.5 231q70 142 70 258zM874 752q0 -92 -65 -156.5t-157 -64.5t-156.5 64.5t-64.5 156.5
t64.5 157t156.5 65t157 -65t65 -157z" />
    <glyph glyph-name="adjust" unicode="&#xe063;" 
d="M600 1177q118 0 224.5 -45.5t184 -123t123 -184t45.5 -224.5t-45.5 -224.5t-123 -184t-184 -123t-224.5 -45.5t-224.5 45.5t-184 123t-123 184t-45.5 224.5t45.5 224.5t123 184t184 123t224.5 45.5zM600 173v854q-177 0 -302 -125t-125 -302q0 -176 125 -301.5
t302 -125.5z" />
    <glyph glyph-name="tint" unicode="&#xe064;" 
d="M554 1295q21 -71 57.5 -142.5t76 -130.5l83 -118.5l82 -117t70 -116t50 -125.5t18.5 -136q0 -89 -39 -165.5t-102 -126.5t-140 -79.5t-156 -33.5q-114 6 -211.5 53t-161.5 138.5t-64 210.5q0 94 34 186t88.5 172.5l112 159t115 177t87.5 194.5zM455 296q-7 6 -18 17
t-34 48t-33 77q-15 73 -14 143.5t10 122.5l9 51q-92 -110 -119.5 -185t-12.5 -156q14 -82 59.5 -136t136.5 -80z" />
    <glyph glyph-name="edit" unicode="&#xe065;" 
d="M1108 1128l-114 -113l114 -113l113 113l-21 85zM900 300v125l200 200v-225q0 -165 -117.5 -282.5t-282.5 -117.5h-300q-165 0 -282.5 117.5t-117.5 282.5v300q0 165 117.5 282.5t282.5 117.5q366 -6 397 -14l-186 -186h-311q-41 0 -70.5 -29.5t-29.5 -70.5v-500
q0 -41 29.5 -70.5t70.5 -29.5h500q41 0 70.5 29.5t29.5 70.5zM895 916l-405 -405l-54 -170l161 50l412 412z" />
    <glyph glyph-name="share" unicode="&#xe066;" 
d="M900 300l200 153v-53q0 -165 -117.5 -282.5t-282.5 -117.5h-300q-165 0 -282.5 117.5t-117.5 282.5v300q0 165 117.5 282.5t282.5 117.5h261l2 -80q-133 -32 -218 -120h-145q-41 0 -70.5 -29.5t-29.5 -70.5v-500q0 -41 29.5 -70.5t70.5 -29.5h500q41 0 70.5 29.5
t29.5 70.5zM814 1073v-216q-7 0 -19 -1t-48 -8t-69.5 -18.5t-76.5 -37t-76.5 -59t-62 -88t-39.5 -121.5q30 38 81.5 64t103 35.5t99 14t77.5 3.5l29 -1v-209l360 324z" />
    <glyph glyph-name="check" unicode="&#xe067;" 
d="M900 300v69l200 200v-169q0 -165 -117.5 -282.5t-282.5 -117.5h-300q-165 0 -282.5 117.5t-117.5 282.5v300q0 165 117.5 282.5t282.5 117.5h300q60 0 127 -23l-178 -177h-349q-41 0 -70.5 -29.5t-29.5 -70.5v-500q0 -41 29.5 -70.5t70.5 -29.5h500q41 0 70.5 29.5
t29.5 70.5zM478 768l-136 -136l283 -284l566 567l-136 137l-430 -431z" />
    <glyph glyph-name="move" unicode="&#xe068;" 
d="M900 899l300 -296l-300 -300v198h-200v-200h195l-295 -300l-300 300h200v200h-200v-198l-300 300l300 296v-198h200v200h-200l300 300l295 -300h-195v-200h200v198z" />
    <glyph glyph-name="stepbackward" unicode="&#xe069;" 
d="M400 613l500 487v-1100l-500 488v-438q0 -21 -14.5 -35.5t-35.5 -14.5h-100q-21 0 -35.5 14.5t-14.5 35.5v1000q0 21 14.5 35.5t35.5 14.5h100q21 0 35.5 -14.5t14.5 -35.5v-437z" />
    <glyph glyph-name="fastbackward" unicode="&#xe070;" 
d="M700 613l500 487v-1100l-500 488v-488l-500 488v-438q0 -21 -14.5 -35.5t-35.5 -14.5h-100q-21 0 -35.5 14.5t-14.5 35.5v1000q0 21 14.5 35.5t35.5 14.5h100q21 0 35.5 -14.5t14.5 -35.5v-437l500 487v-487z" />
    <glyph glyph-name="backward" unicode="&#xe071;" 
d="M700 613l500 487v-1100l-500 488v-488l-564 550l564 550v-487z" />
    <glyph glyph-name="play" unicode="&#xe072;" 
d="M200 1100v-1100l900 550z" />
    <glyph glyph-name="pause" unicode="&#xe073;" 
d="M250 100h200q21 0 35.5 14.5t14.5 35.5v800q0 21 -14.5 35.5t-35.5 14.5h-200q-21 0 -35.5 -14.5t-14.5 -35.5v-800q0 -21 14.5 -35.5t35.5 -14.5zM650 100h200q21 0 35.5 14.5t14.5 35.5v800q0 21 -14.5 35.5t-35.5 14.5h-200q-21 0 -35.5 -14.5t-14.5 -35.5v-800
q0 -21 14.5 -35.5t35.5 -14.5z" />
    <glyph glyph-name="stop" unicode="&#xe074;" 
d="M250 100h800q21 0 35.5 15t14.5 35v800q0 21 -14.5 35.5t-35.5 14.5h-800q-21 0 -35.5 -14.5t-14.5 -35.5v-800q0 -20 14.5 -35t35.5 -15z" />
    <glyph glyph-name="forward" unicode="&#xe075;" 
d="M500 1100l564 -550l-564 -550v488l-500 -488v1100l500 -487v487z" />
    <glyph glyph-name="fastforward" unicode="&#xe076;" 
d="M1050 1100h100q21 0 35.5 -14.5t14.5 -35.5v-1000q0 -21 -14.5 -35.5t-35.5 -14.5h-100q-21 0 -35.5 14.5t-14.5 35.5v438l-500 -488v488l-500 -488v1100l500 -487v487l500 -487v437q0 21 14.5 35.5t35.5 14.5z" />
    <glyph glyph-name="stepforward" unicode="&#xe077;" 
d="M850 1100h100q21 0 35.5 -14.5t14.5 -35.5v-1000q0 -21 -14.5 -35.5t-35.5 -14.5h-100q-21 0 -35.5 14.5t-14.5 35.5v438l-500 -488v1100l500 -487v437q0 21 14.5 35.5t35.5 14.5z" />
    <glyph glyph-name="eject" unicode="&#xe078;" 
d="M100 500h1100l-550 564zM150 400h1000q21 0 35.5 -14.5t14.5 -35.5v-100q0 -21 -14.5 -35.5t-35.5 -14.5h-1000q-21 0 -35.5 14.5t-14.5 35.5v100q0 21 14.5 35.5t35.5 14.5z" />
    <glyph glyph-name="chevronleft" unicode="&#xe079;" 
d="M533 551l352 -353l-198 -198l-551 550v1l551 550l198 -197z" />
    <glyph glyph-name="chevronright" unicode="&#xe080;" 
d="M668 551l-353 -353l198 -198l552 550l-1 1l-551 550l-198 -197z" />
    <glyph glyph-name="plussign" unicode="&#xe081;" 
d="M600 1177q118 0 224.5 -45.5t184 -123t123 -184t45.5 -224.5t-45.5 -224.5t-123 -184t-184 -123t-224.5 -45.5t-224.5 45.5t-184 123t-123 184t-45.5 224.5t45.5 224.5t123 184t184 123t224.5 45.5zM700 500h200v200h-200v200h-200v-200h-200v-200h200v-200h200v200z" />
    <glyph glyph-name="minussign" unicode="&#xe082;" 
d="M600 1177q118 0 224.5 -45.5t184 -123t123 -184t45.5 -224.5t-45.5 -224.5t-123 -184t-184 -123t-224.5 -45.5t-224.5 45.5t-184 123t-123 184t-45.5 224.5t45.5 224.5t123 184t184 123t224.5 45.5zM300 500h600v200h-600v-200z" />
    <glyph glyph-name="removesign" unicode="&#xe083;" 
d="M600 1177q118 0 224.5 -45.5t184 -123t123 -184t45.5 -224.5t-45.5 -224.5t-123 -184t-184 -123t-224.5 -45.5t-224.5 45.5t-184 123t-123 184t-45.5 224.5t45.5 224.5t123 184t184 123t224.5 45.5zM741 247l213 212l-142 141l142 142l-213 212l-141 -142l-141 142
l-212 -212l141 -142l-141 -141l212 -212l141 141z" />
    <glyph glyph-name="oksign" unicode="&#xe084;" 
d="M600 1177q118 0 224.5 -45.5t184 -123t123 -184t45.5 -224.5t-45.5 -224.5t-123 -184t-184 -123t-224.5 -45.5t-224.5 45.5t-184 123t-123 184t-45.5 224.5t45.5 224.5t123 184t184 123t224.5 45.5zM270 551l276 -277l411 411l-175 174l-236 -236l-102 102z" />
    <glyph glyph-name="questionsign" unicode="&#xe085;" 
d="M600 1177q118 0 224.5 -45.5t184 -123t123 -184t45.5 -224.5t-45.5 -224.5t-123 -184t-184 -123t-224.5 -45.5t-224.5 45.5t-184 123t-123 184t-45.5 224.5t45.5 224.5t123 184t184 123t224.5 45.5zM700 500l14 8t31.5 25.5t39.5 46t31 69t14 93.5q0 51 -17.5 89t-42 58
t-58.5 32t-58.5 15t-51.5 3q-50 0 -90.5 -12t-75 -38.5t-53.5 -74.5t-19 -114h143q4 0 11.5 -1t11 -0.5t6.5 3t3 8.5t1 11t3.5 8.5t3.5 6t5.5 4t6.5 2.5t9 1.5t9 0.5h11.5h12.5q19 0 30 -10t11 -26q0 -21 -4.5 -27.5t-26.5 -21.5q-5 -1 -12.5 -3.5t-27 -13.5t-34 -27
t-26.5 -46.5t-11 -68.5h200zM500 300h200v100h-200v-100z" />
    <glyph glyph-name="infosign" unicode="&#xe086;" 
d="M600 1177q118 0 224.5 -45.5t184 -123t123 -184t45.5 -224.5t-45.5 -224.5t-123 -184t-184 -123t-224.5 -45.5t-224.5 45.5t-184 123t-123 184t-45.5 224.5t45.5 224.5t123 184t184 123t224.5 45.5zM700 900h-200v-100h200v100zM400 300h400v100h-100v300h-300v-100h100
v-200h-100v-100z" />
    <glyph glyph-name="screenshot" unicode="&#xe087;" 
d="M1003 700h165h32v-200h-203q-25 -102 -116.5 -186t-180.5 -117v-197h-200v197q-140 27 -208 102.5t-98 200.5h-194v200h194q15 60 36 104.5t55.5 86t88 69t126.5 40.5v200h200v-200q54 -20 113 -60t112.5 -105.5t71.5 -134.5h6zM700 500v-206q149 48 201 206h-201v200
h200q-25 74 -76 127.5t-124 76.5v-204h-200v203q-75 -24 -130 -77.5t-79 -125.5h209v-200h-210q24 -73 79.5 -127.5t130.5 -78.5v206h200z" />
    <glyph glyph-name="removecircle" unicode="&#xe088;" 
d="M600 1177q118 0 224.5 -45.5t184 -123t123 -184t45.5 -224.5t-45.5 -224.5t-123 -184t-184 -123t-224.5 -45.5t-224.5 45.5t-184 123t-123 184t-45.5 224.5t45.5 224.5t123 184t184 123t224.5 45.5zM600 1027q-177 0 -302 -125t-125 -302q0 -176 125 -301.5t302 -125.5
t302 125.5t125 301.5q0 177 -125 302t-302 125zM600 681l135 135l81 -81l-135 -135l135 -135l-81 -81l-135 136l-135 -136l-81 81l135 135l-135 135l81 81z" />
    <glyph glyph-name="okcircle" unicode="&#xe089;" 
d="M600 1177q118 0 224.5 -45.5t184 -123t123 -184t45.5 -224.5t-45.5 -224.5t-123 -184t-184 -123t-224.5 -45.5t-224.5 45.5t-184 123t-123 184t-45.5 224.5t45.5 224.5t123 184t184 123t224.5 45.5zM600 1027q-177 0 -302 -125t-125 -302q0 -176 125 -301.5t302 -125.5
t302 125.5t125 301.5q0 177 -125 302t-302 125zM550 563l204 204l113 -113l-317 -317l-200 200l113 113z" />
    <glyph glyph-name="bancircle" unicode="&#xe090;" 
d="M600 1177q118 0 224.5 -45.5t184 -123t123 -184t45.5 -224.5t-45.5 -224.5t-123 -184t-184 -123t-224.5 -45.5t-224.5 45.5t-184 123t-123 184t-45.5 224.5t45.5 224.5t123 184t184 123t224.5 45.5zM239 375l586 587q-105 65 -225 65q-177 0 -302 -125t-125 -302
q0 -119 66 -225zM965 819l-584 -584q104 -62 219 -62q177 0 302 125.5t125 301.5q0 117 -62 219z" />
    <glyph glyph-name="arrowleft" unicode="&#xe091;" 
d="M600 700h600v-300h-600v-301l-600 448l600 453v-300z" />
    <glyph glyph-name="arrowright" unicode="&#xe092;" 
d="M1200 547l-600 -448v301h-600v300h600v300z" />
    <glyph glyph-name="arrowup" unicode="&#xe093;" 
d="M204 600l450 600l444 -600h-298v-600h-300v600h-296z" />
    <glyph glyph-name="arrowdown" unicode="&#xe094;" 
d="M700 1200v-600h298l-449 -600l-445 600h296v600h300z" />
    <glyph glyph-name="sharealt" unicode="&#xe095;" 
d="M1200 647l-600 -448v301q-94 -2 -182.5 -20t-170.5 -52.5t-147 -92.5t-100 -135q5 105 27 193t68 167t113 135t166.5 91.5t225.5 42.5v271z" />
    <glyph glyph-name="resizefull" unicode="&#xe096;" 
d="M1071 929l129 -129v400h-400l129 -129l-294 -294l142 -142zM129 271l294 294l142 -142l-294 -294l129 -129h-400v400z" />
    <glyph glyph-name="resizesmall" unicode="&#xe097;" 
d="M1024 1166l142 -142l-295 -294l129 -130h-400v400l129 -129zM34 176l295 295l-129 129h400v-400l-129 130l-295 -295z" />
    <glyph glyph-name="exclamationsign" unicode="&#xe101;" 
d="M600 1177q118 0 224.5 -45.5t184 -123t123 -184t45.5 -224.5t-45.5 -224.5t-123 -184t-184 -123t-224.5 -45.5t-224.5 45.5t-184 123t-123 184t-45.5 224.5t45.5 224.5t123 184t184 123t224.5 45.5zM573 500h54q20 0 37.5 14.5t21.5 34.5l58 302q4 20 -8 34.5t-33 14.5
h-207q-20 0 -32 -14.5t-8 -34.5l58 -302q4 -20 21.5 -34.5t37.5 -14.5zM500 300h200v100h-200v-100z" />
    <glyph glyph-name="gift" unicode="&#xe102;" 
d="M1200 800v100h-111v6t-1 15t-3 18l-34 172q-11 39 -41.5 63t-69.5 24q-32 0 -61 -17l-239 -144q-22 -13 -40 -35q-19 24 -40 36l-238 144q-33 18 -62 18q-39 0 -69.5 -23t-40.5 -61l-35 -177q-2 -8 -3 -18t-1 -15v-6h-111v-100h100v-200h400v300h200v-300h400v200h100z
M731 900l202 197q5 -12 12 -32.5t23 -64t25 -72t7 -28.5h-269zM267 1091l214 -191h-281q-3 0 14 47.5l35 95.5zM500 400h-400v-400h400v400zM1100 0h-400v400h400v-400z" />
    <glyph glyph-name="leaf" unicode="&#xe103;" 
d="M0 121l216 193q-9 53 -13 83t-5.5 94t9 113t38.5 114t74 124q47 60 99.5 102.5t103 68t127.5 48t145.5 37.5t184.5 43.5t220 58.5q0 -189 -22 -343t-59 -258t-89 -181.5t-108.5 -120t-122 -68t-125.5 -30t-121.5 -1.5t-107.5 12.5t-87.5 17t-56.5 7.5l-99 -55l-201 -202
v143zM692 611q70 38 118.5 69.5t102 79t99 111.5t86.5 148q22 50 24 60t-6 19q-7 5 -17 5t-26.5 -14.5t-33.5 -39.5q-35 -51 -113.5 -108.5t-139.5 -89.5l-61 -32q-369 -197 -458 -401q-48 -111 -28.5 -117.5t86.5 76.5q55 66 367 234z" />
    <glyph glyph-name="fire" unicode="&#xe104;" 
d="M400 755q2 -12 8 -41.5t8 -43l6 -39.5t3.5 -39.5t-1 -33.5t-6 -31.5t-13.5 -24t-21 -20.5t-31 -12q-38 -10 -67 13t-40.5 61.5t-15 81.5t10.5 75q-52 -46 -83.5 -101t-39 -107t-7.5 -85t5 -63q9 -56 44 -119.5t105 -108.5q31 -21 64 -16t62 23.5t57 49.5t48 61.5t35 60.5
q32 66 39 184.5t-13 157.5q79 -80 122 -164t26 -184q-5 -33 -20.5 -69.5t-37.5 -80.5q-10 -19 -14.5 -29l-12 -26t-9 -23.5t-3 -19t2.5 -15.5t11 -9.5t19.5 -5t30.5 2.5t42 8q57 20 91 34t87.5 44.5t87 64t65.5 88.5t47 122q38 172 -44.5 341.5t-246.5 278.5q22 -44 43 -129
q39 -159 -32 -154q-14 1 -33 9q-79 33 -120.5 100t-44 175.5t48.5 257.5q-13 -8 -34 -23.5t-72.5 -66.5t-88.5 -105.5t-60 -138t-8 -166.5z" />
    <glyph glyph-name="eyeopen" unicode="&#xe105;" 
d="M-61 600l26 40q6 10 20 30t49 63.5t74.5 85.5t97 90t116.5 83.5t132.5 59t145.5 23.5t145.5 -23.5t132.5 -59t116.5 -83.5t97 -90t74.5 -85.5t49 -63.5t20 -30l26 -40l-26 -40q-6 -10 -20 -30t-49 -63.5t-74.5 -85.5t-97 -90t-116.5 -83.5t-132.5 -59t-145.5 -23.5
t-145.5 23.5t-132.5 59t-116.5 83.5t-97 90t-74.5 85.5t-49 63.5t-20 30zM600 240q64 0 123.5 20t100.5 45.5t85.5 71.5t66.5 75.5l58 81.5t47 66q-1 1 -28.5 37.5l-42 55l-43.5 53t-57.5 63.5t-58.5 54q49 -74 49 -163q0 -124 -88 -212t-212 -88t-212 88t-88 212
q0 85 46 158q-102 -87 -226 -258l40.5 -58l56 -78.5t68 -77.5t87.5 -75t103 -49.5t125 -21.5zM531 465l105 105q-37 24 -75 72t-57 84l-20 36l-107 -106q49 -124 154 -191z" />
    <glyph glyph-name="eyeclose" unicode="&#xe106;" 
d="M721 1058l37 142h148l-314 -1200h-148l37 143q-82 21 -165 71.5t-140 102t-109.5 112t-72 88.5l-29.5 43l-26 40l26 40q6 10 20 30t49 63.5t74.5 85.5t97 90t116.5 83.5t132.5 59t145.5 23.5q61 0 121 -17zM941 775l38 146q68 -54 132.5 -125.5t87.5 -103.5t36 -52
l26 -40l-26 -40q-7 -12 -25.5 -38t-63.5 -79.5t-95.5 -102.5t-124 -100t-146.5 -79l38 145q22 15 45 34t45.5 43.5l40.5 44.5t40.5 49.5l34 44.5t32 44t24.5 34q-83 113 -139 175zM513 264l37 141q-107 18 -178.5 101.5t-71.5 193.5q0 85 46 158q-97 -83 -227 -258
l65.5 -82.5t84 -93t118.5 -100t126 -60.5zM578 512l23 87q-30 28 -59.5 69t-43.5 68l-15 26l-106 -106q49 -124 154 -191z" />
    <glyph glyph-name="warningsign" unicode="&#xe107;" 
d="M-47 0h1294q37 0 50.5 35.5t-7.5 67.5l-642 1056q-20 33 -48 36t-48 -29l-642 -1066q-21 -32 -7.5 -66t50.5 -34zM600 923l445 -723h-345v100h-200v-100h-345zM600 300l100 300v100h-200v-100z" />
    <glyph glyph-name="plane" unicode="&#xe108;" 
d="M800 711l363 -325q15 -14 26 -38.5t11 -44.5v-41q0 -20 -12 -26.5t-29 5.5l-359 249v-263q100 -91 100 -113v-64q0 -20 -13 -28.5t-32 0.5l-94 78h-222l-94 -78q-19 -9 -32 -0.5t-13 28.5v64q0 22 100 113v263l-359 -249q-17 -12 -29 -5.5t-12 26.5v41q0 20 11 44.5
t26 38.5l363 325v339q0 62 44 106t106 44t106 -44t44 -106v-339z" />
    <glyph glyph-name="calendar" unicode="&#xe109;" 
d="M1100 900v150q0 21 -14.5 35.5t-35.5 14.5h-150v100h-100v-100h-500v100h-100v-100h-150q-21 0 -35.5 -14.5t-14.5 -35.5v-150h1100zM1100 800h-1100v-750q0 -20 14.5 -35t35.5 -15h1000q21 0 35.5 15t14.5 35v750zM200 500h-100v100h100v-100zM400 500h-100v100h100
v-100zM600 500h-100v100h100v-100zM800 500h-100v100h100v-100zM1000 500h-100v100h100v-100zM200 300h-100v100h100v-100zM400 300h-100v100h100v-100zM600 300h-100v100h100v-100zM800 300h-100v100h100v-100zM1000 300h-100v100h100v-100zM200 100h-100v100h100v-100z
M400 100h-100v100h100v-100zM600 100h-100v100h100v-100zM800 100h-100v100h100v-100zM1000 100h-100v100h100v-100z" />
    <glyph glyph-name="random" unicode="&#xe110;" 
d="M1100 603v197h-159l-600 -600h-341v200h259l600 600h241v198l300 -295zM0 800h259l122 -122l141 142l-181 180h-341v-200zM941 400h159v198l300 -295l-300 -300v197h-241l-181 181l141 142z" />
    <glyph glyph-name="comments" unicode="&#xe111;" 
d="M100 1100h1000q41 0 70.5 -29.5t29.5 -70.5v-600q0 -41 -29.5 -70.5t-70.5 -29.5h-596l-304 -300v300h-100q-41 0 -70.5 29.5t-29.5 70.5v600q0 41 29.5 70.5t70.5 29.5z" />
    <glyph glyph-name="magnet" unicode="&#xe112;" 
d="M100 1200h300v-300h-300v300zM800 1200h300v-300h-300v300zM800 550v250h300v-200q0 -42 -3 -83t-15 -104t-31.5 -116t-58 -109.5t-89 -96.5t-129 -65.5t-174.5 -25.5t-174.5 25.5t-129 65.5t-89 96.5t-58 109.5t-31.5 116t-15 104t-3 83v200h300v-250q0 -113 6 -145
q17 -92 102 -117q38 -11 92 -11q37 0 66.5 5.5t50 15.5t36 24t24 31.5t14 37.5t7 42t2.5 45t0 47v25z" />
    <glyph glyph-name="chevronup" unicode="&#xe113;" 
d="M550 565l353 -353l198 198l-550 552l-552 -552l198 -198z" />
    <glyph glyph-name="chevrondown" unicode="&#xe114;" 
d="M649 643l-352 352l-198 -198l551 -551l550 551l-198 198z" />
    <glyph glyph-name="retweet" unicode="&#xe115;" 
d="M1099 117l299 283h-200v600h-796l215 -200h381v-400h-199zM-2 100v600h-196l299 283l300 -283h-203v-400h385l215 -200h-800z" />
    <glyph glyph-name="shoppingcart" unicode="&#xe116;" 
d="M1050 1200h94q20 0 35 -14.5t15 -35.5t-15 -35.5t-35 -14.5h-54l-201 -961q-2 -4 -6 -10.5t-19 -17.5t-33 -11h-31v-50q0 -21 -14.5 -35.5t-35.5 -14.5t-35.5 14.5t-14.5 35.5v50h-300v-50q0 -21 -14.5 -35.5t-35.5 -14.5t-35.5 14.5t-14.5 35.5v50h-50q-21 0 -35.5 14.5
t-14.5 35.5t14.5 35.5t35.5 14.5h535l48 200h-633q-32 0 -54.5 21t-27.5 43l-100 475q-5 24 10 42q14 19 39 19h896l38 162q5 17 18.5 27.5t30.5 10.5z" />
    <glyph glyph-name="folderclose" unicode="&#xe117;" 
d="M300 1100h300q41 0 70.5 -29.5t29.5 -70.5h500v-100h-1200v100h200q0 41 29.5 70.5t70.5 29.5zM1200 0h-1200v800h1200v-800z" />
    <glyph glyph-name="folderopen" unicode="&#xe118;" 
d="M1201 1000v-200h-1000l-200 -400v600h200q0 41 29.5 70.5t70.5 29.5h300q41 0 70.5 -29.5t29.5 -70.5h500zM1 0l300 700h1200l-300 -700h-1200z" />
    <glyph glyph-name="resizevertical" unicode="&#xe119;" 
d="M898 300l-298 -300l-298 300h198v600h-198l298 300l298 -300h-198v-600h198z" />
    <glyph glyph-name="resizehorizontal" unicode="&#xe120;" 
d="M900 898l300 -298l-300 -297v197h-600v-197l-300 297l300 298v-198h600v198z" />
    <glyph glyph-name="hdd" unicode="&#xe121;" 
d="M997 1132l172 -732h-1138l172 739q5 22 23 41.5t38 19.5h672q19 0 37.5 -22.5t23.5 -45.5zM100 300h1000q41 0 70.5 -29.5t29.5 -70.5v-100q0 -41 -29.5 -70.5t-70.5 -29.5h-1000q-41 0 -70.5 29.5t-29.5 70.5v100q0 41 29.5 70.5t70.5 29.5zM800 100h100v100h-100v-100z
M1000 100h100v100h-100v-100z" />
    <glyph glyph-name="bullhorn" unicode="&#xe122;" 
d="M1100 200v850q0 21 14.5 35.5t35.5 14.5q20 0 35 -14.5t15 -35.5v-850q0 -20 -15 -35t-35 -15q-21 0 -35.5 15t-14.5 35zM100 500v250v8v8v7t0.5 7t1.5 5.5t2 5t3 4t4.5 3.5t6 1.5t7.5 0.5h200l675 250v-850l-675 200h-38l47 -276q2 -12 -3 -17.5t-11 -6t-21 -0.5h-8h-83
q-20 0 -34.5 14t-18.5 35q-55 337 -55 351zM-101 600v50q0 24 25 49t50 38l25 13v-250l-11 5.5t-24 14t-30 21.5t-24 27.5t-11 31.5z" />
    <glyph glyph-name="bell" unicode="&#xe123;" 
d="M1062 400h17q20 0 33.5 -14.5t13.5 -35.5q0 -20 -13 -40t-31 -27q-22 -9 -63 -23t-167.5 -37t-251.5 -23t-245.5 20.5t-178.5 41.5l-58 20q-18 7 -31 27.5t-13 40.5q0 21 13.5 35.5t33.5 14.5h17l118 173l63 327q15 77 76 140t144 83l-18 32q-6 19 3 32t29 13h94
q20 0 29 -10.5t3 -29.5q-18 -36 -18 -37q83 -19 144 -82.5t76 -140.5l63 -327zM600 104q-53 0 -103 6q12 -49 40 -79.5t63 -30.5t63 30.5t39 79.5q-48 -6 -102 -6z" />
    <glyph glyph-name="certificate" unicode="&#xe124;" 
d="M755 1180l-155 -180l-155 180l-45 -233l-224 78l78 -225l-233 -44l179 -156l-179 -155l233 -45l-78 -224l224 78l45 -233l155 179l155 -179l45 233l224 -78l-78 224l234 45l-180 155l180 156l-234 44l78 225l-224 -78z" />
    <glyph glyph-name="thumbsup" unicode="&#xe125;" 
d="M650 1200h50q39 0 69.5 -40.5t30.5 -84.5v-150l-28 -125h328q39 0 69.5 -40.5t30.5 -84.5v-100q0 -43 -29 -74l-238 -344q-37 -57 -83 -57h-250q-7 0 -41.5 25l-66.5 50l-31 25h-61q-100 0 -100 75v400q0 37 20 63l145 196l96 198q14 28 38 48t51 20zM0 800h200v-600
h-200v600z" />
    <glyph glyph-name="thumbsdown" unicode="&#xe126;" 
d="M800 275v-150q0 -44 -30.5 -84.5t-69.5 -40.5h-50q-27 0 -51 20t-38 48l-96 198l-145 196q-20 26 -20 63v400q0 75 100 75h61q123 100 139 100h250q46 0 83 -57l238 -344q29 -31 29 -74v-100q0 -44 -30.5 -84.5t-69.5 -40.5h-328q28 -118 28 -125zM0 1000h200v-600h-200
v600z" />
    <glyph glyph-name="handright" unicode="&#xe127;" 
d="M481 100h341q15 0 28.5 19.5t20.5 41.5l130 339h107q84 0 138.5 39t54.5 111t-53.5 110t-138.5 38h-302l85 121q11 15 10.5 34t-13.5 32l-110 112q-22 22 -53 6l-362 -230l-15.5 -10.5t-25 -26t-15.5 -36.5v-525q0 -13 83 -94t90 -81zM801 200h-293l-100 89v503l339 236
l86 -83l-147 -183q-17 -23 -5 -47q2 -3 4 -5.5t4 -4t5.5 -2.5t5 -1.5t6 -1t6.5 -0.5h7.5h6.5h457q22 0 30.5 -25t-0.5 -50t-30 -25h-203q-15 0 -28.5 -20t-19.5 -41zM8 800h200v-600h-200v600z" />
    <glyph glyph-name="handleft" unicode="&#xe128;" 
d="M200 501l130 -339q6 -21 19.5 -41t29.5 -20h341q8 0 94 80.5t86 93.5v526q0 17 -15 35.5t-30 27.5l-15 10l-365 230q-32 14 -54 -6l-109 -113q-13 -13 -13.5 -32t10.5 -34l85 -121q-101 1 -302 1q-85 0 -139 -38t-54 -110t55 -111t139 -39h107zM800 792v-502l-107 -89
h-293l-131 339q-6 20 -19.5 40.5t-28.5 20.5h-222v100h476h6.5h7.5t6.5 0.5t6.5 1t5.5 1.5t5 2.5l4 4t3.5 5.5q13 24 -5 46l-145 184l87 83zM1200 201h-200v600h200v-600z" />
    <glyph glyph-name="handtop" unicode="&#xe129;" 
d="M1100 473v342q0 15 -20 28.5t-41 19.5l-339 131v106q0 84 -39 139t-111 55t-110 -53.5t-38 -138.5v-302l-121 84q-15 12 -33.5 11.5t-32.5 -13.5l-112 -110q-22 -22 -6 -53l230 -363l10.5 -15.5t26 -25t36.5 -15.5h525q13 0 94 83t81 90zM1000 793v-293l-89 -100h-503
l-236 339l83 86l183 -146q22 -18 47 -5q3 1 5.5 3.5l4 4t2.5 5t1.5 5.5t1 6.5t0.5 6v7.5v7v456q0 22 25 31t50 -0.5t25 -30.5v-203q0 -15 20 -28.5t41 -19.5zM400 0v200h600v-200h-600z" />
    <glyph glyph-name="handdown" unicode="&#xe130;" 
d="M905 1304v-200h-600v200h600zM605 310l339 131q20 6 40.5 19.5t20.5 28.5v342q0 7 -81 90t-94 83h-525q-17 0 -35.5 -14t-28.5 -28l-10 -15l-230 -362q-15 -31 7 -53l112 -110q13 -13 32 -13.5t34 10.5l121 85q0 -51 -0.5 -153.5t-0.5 -148.5q0 -84 38.5 -138t110.5 -54
t111 55t39 139v106zM313 904h503l89 -100v-294l-340 -130q-21 -7 -40.5 -20.5t-19.5 -28.5v-202q0 -22 -25 -31t-50 0t-25 31v456v14.5t-1.5 11.5t-5 12t-9.5 7q-24 13 -46 -5l-184 -146l-83 86z" />
    <glyph glyph-name="circlearrowright" unicode="&#xe131;" 
d="M22 600q0 157 77.5 290.5t210.5 210.5t290 77t290 -77t210.5 -210.5t77.5 -290.5t-77.5 -290t-210.5 -210.5t-290 -77.5t-290 77.5t-210.5 210.5t-77.5 290zM598 701h-300v-201h300v-194l402 294l-402 299v-198z" />
    <glyph glyph-name="circlearrowleft" unicode="&#xe132;" 
d="M600 1178q157 0 290 -77t210.5 -210.5t77.5 -290.5t-77.5 -290t-210.5 -210.5t-290 -77.5t-290 77.5t-210.5 210.5t-77.5 290t77.5 290.5t210.5 210.5t290 77zM600 500h300v201h-298v198l-402 -299l400 -294v194z" />
    <glyph glyph-name="circlearrowtop" unicode="&#xe133;" 
d="M600 22q-157 0 -290 77.5t-210.5 210.5t-77.5 290t77.5 290.5t210.5 210.5t290 77t290 -77t210.5 -210.5t77.5 -290.5t-77.5 -290t-210.5 -210.5t-290 -77.5zM499 599v-300h201v300h194l-294 401l-298 -401h197z" />
    <glyph glyph-name="circlearrowdown" unicode="&#xe134;" 
d="M600 1178q157 0 290 -77t210.5 -210.5t77.5 -290.5t-77.5 -290t-210.5 -210.5t-290 -77.5t-290 77.5t-210.5 210.5t-77.5 290t77.5 290.5t210.5 210.5t290 77zM701 602v300h-201v-300h-194l294 -402l298 402h-197z" />
    <glyph glyph-name="globe" unicode="&#xe135;" 
d="M600 1176q154 0 287 -78t211 -211t78 -287t-78 -287t-211 -211t-287 -78t-287 78t-211 211t-78 287t78 287t211 211t287 78zM915 212q30 29 47 47t34.5 49.5t20.5 62.5q-14 9 -37.5 9t-35.5 7q-14 8 -49 15.5t-52 18.5q-9 0 -39.5 -0.5t-46.5 -1.5t-39 -6.5t-39 -16.5
q-50 -35 -66 -12q-4 2 -3.5 25.5t0.5 25.5q-6 13 -26.5 17t-24.5 7q2 22 -2 41t-16.5 28t-38.5 -20q-23 -25 -42 4q-19 28 -8 58q6 16 22 22q6 -1 26 -1.5t33.5 -4t19.5 -13.5q12 -19 32 -37.5t34 -27.5l14 -8q0 3 9.5 39.5t5.5 57.5q-4 23 14.5 44.5t22.5 31.5q5 14 10 35
t8.5 31t15.5 22.5t34 22.5q-6 17 10 36q8 0 23.5 -1.5t24.5 -1.5t20.5 4.5t20.5 15.5q-10 23 -30.5 42.5t-38 30t-49 26.5t-43.5 23q11 41 1 44q31 -13 58.5 -14.5t39.5 3.5l11 4q6 36 -17 53.5t-64 28.5t-56 23q-20 -3 -37 1q-16 -13 -37.5 -21.5t-34 -12t-44 -8.5
t-38.5 -6q-15 -3 -45.5 0.5t-45.5 -2.5q-22 -8 -52.5 -27t-33.5 -34q-3 -11 6.5 -22.5t8.5 -18.5q-3 -34 -27.5 -90.5t-29.5 -79.5q-8 -33 5.5 -92.5t7.5 -87.5q0 -9 17 -44t16 -60q12 0 23 -5.5t23 -15t20 -13.5q16 -8 34 -15t40 -14.5t34 -12.5q22 -8 53 -31.5t59.5 -38.5
t57.5 -11q8 -18 -15 -55t-20 -57q42 -71 87 -80q0 -6 -3 -15.5t-3.5 -14.5t4.5 -17q104 -3 221 112zM613 994q0 -17 8 -41.5t16.5 -44.5t9.5 -24q-9 2 -39.5 6t-52 10t-37.5 16q3 12 16 30t16 25q10 -10 18.5 -10t14 6t14.5 14.5t16 12.5z" />
    <glyph glyph-name="wrench" unicode="&#xe136;" 
d="M948 778l251 126q13 -175 -151 -267q-123 -70 -253 -23l-596 -596q-15 -16 -36.5 -16t-36.5 16l-111 110q-15 15 -15 36.5t15 37.5l600 599q-33 101 6 201.5t135 154.5q164 92 306 -9l-259 -138z" />
    <glyph glyph-name="tasks" unicode="&#xe137;" horiz-adv-x="1220" 
d="M100 1196h1000q41 0 70.5 -29.5t29.5 -70.5v-100q0 -41 -29.5 -70.5t-70.5 -29.5h-1000q-41 0 -70.5 29.5t-29.5 70.5v100q0 41 29.5 70.5t70.5 29.5zM900 996h200v100h-200v-100zM100 796h1000q41 0 70.5 -29.5t29.5 -70.5v-100q0 -41 -29.5 -70.5t-70.5 -29.5h-1000
q-41 0 -70.5 29.5t-29.5 70.5v100q0 41 29.5 70.5t70.5 29.5zM600 596h500v100h-500v-100zM100 396h1000q41 0 70.5 -29.5t29.5 -70.5v-100q0 -41 -29.5 -70.5t-70.5 -29.5h-1000q-41 0 -70.5 29.5t-29.5 70.5v100q0 41 29.5 70.5t70.5 29.5zM800 196h300v100h-300v-100z
" />
    <glyph glyph-name="filter" unicode="&#xe138;" 
d="M100 1100v100h1000v-100h-1000zM500 0v500l-350 500h900l-350 -500v-300z" />
    <glyph glyph-name="briefcase" unicode="&#xe139;" 
d="M800 1000h300q41 0 70.5 -29.5t29.5 -70.5v-400h-500v100h-200v-100h-500v400q0 41 29.5 70.5t70.5 29.5h300v100q0 41 29.5 70.5t70.5 29.5h200q41 0 70.5 -29.5t29.5 -70.5v-100zM700 1100h-200v-100h200v100zM0 400h1200v-200q0 -41 -29.5 -70.5t-70.5 -29.5h-1000
q-41 0 -70.5 29.5t-29.5 70.5v200z" />
    <glyph glyph-name="fullscreen" unicode="&#xe140;" 
d="M0 800l129 129l200 -200l142 142l-200 200l129 129h-400v-400zM929 1071l-129 129h400v-400l-129 129l-200 -200l-142 142zM329 471l142 -142l-200 -200l129 -129h-400v400l129 -129zM729 329l142 142l200 -200l129 129v-400h-400l129 129z" />
    <glyph glyph-name="dashboard" unicode="&#xe141;" 
d="M600 1177q118 0 224.5 -45.5t184 -123t123 -184t45.5 -224.5t-45.5 -224.5t-123 -184t-184 -123t-224.5 -45.5t-224.5 45.5t-184 123t-123 184t-45.5 224.5t45.5 224.5t123 184t184 123t224.5 45.5zM600 173q177 0 302 125.5t125 301.5q0 177 -125 302t-302 125
q-176 0 -301.5 -125t-125.5 -302q0 -176 125.5 -301.5t301.5 -125.5zM455 905q22 0 38 -16t16 -39t-16 -39t-38 -16q-23 0 -39 16.5t-16 38.5t16 38.5t39 16.5zM586 695l122 126l1 1q-9 14 -9 28q0 22 16 38.5t39 16.5q22 0 38 -16t16 -39t-16 -39t-38 -16q-16 0 -29 10
l-55 -145q17 -22 17 -51q0 -36 -25.5 -61.5t-61.5 -25.5t-62 25.5t-26 61.5q0 32 21 56.5t52 29.5zM345 710q23 0 39 -16t16 -39t-16 -39t-39 -16q-22 0 -38 16t-16 39t16 39t38 16zM855 710q22 0 38 -16t16 -39t-16 -39t-38 -16q-23 0 -39 16t-16 39t16 39t39 16z" />
    <glyph glyph-name="paperclip" unicode="&#xe142;" 
d="M511 126l7 -7l69 -60l517 511q67 67 95 157t11 183q-16 87 -67 154t-130 103q-69 33 -152 33q-107 0 -197 -55q-39 -23 -111 -95l-512 -512q-68 -68 -81 -163t35 -173q35 -57 94 -89t129 -32q63 0 119 28q33 16 65 40.5t52.5 45.5l59.5 64q40 44 57 61l394 394
q35 35 47 84t-3 96q-27 87 -117 104q-20 2 -29 2q-46 0 -79.5 -17t-67.5 -51l-388 -396l-7 -7l69 -67l377 373q20 22 39 38q23 23 50 23q38 0 53 -36q16 -39 -20 -75l-547 -547q-52 -52 -125 -52q-55 0 -100 33t-54 96q-5 35 2.5 66t31.5 63t42 50l56 54q24 21 44 41
l348 348q52 52 82.5 79.5t84 54t107.5 26.5q25 0 48 -4q95 -17 154 -94.5t51 -175.5q-7 -101 -98 -192l-252 -249z" />
    <glyph glyph-name="heartempty" unicode="&#xe143;" 
d="M649 949q48 69 109.5 105t121.5 38t118.5 -20.5t102.5 -64t71 -100t27 -122.5q0 -70 -55.5 -151.5t-129.5 -151t-182.5 -181t-182.5 -212.5q-62 85 -145.5 174t-150 152.5l-127 127t-94 124.5t-33.5 118q0 64 28 122.5t73 100t104.5 64t119 20.5t120 -38.5t105.5 -104.5z
M646 734l-97 150q-58 88 -141 88q-68 0 -123.5 -55.5t-55.5 -131.5q0 -44 47 -101.5t144 -151.5l25 -24q101 -98 204 -217q85 97 209 219q127 125 163 171q48 62 48 104q0 78 -53.5 132.5t-120.5 54.5q-85 0 -147 -91z" />
    <glyph glyph-name="link" unicode="&#xe144;" 
d="M335 547l141 -141q3 -3 9.5 -9t8.5 -8l106 105l-212 212l389 389l247 -247l-95 -96l17 -17q47 -47 78 -100l29 29q35 35 62.5 88t27.5 96q0 93 -66 159l-141 141q-66 66 -159 66q-95 0 -159 -66l-283 -283q-66 -64 -66 -159q0 -93 66 -159zM123 194l141 -142
q66 -66 159 -66t159 66l283 283q66 66 66 159t-66 159l-141 141q-4 4 -19 17l-105 -105l212 -212l-389 -389l-247 248l95 95l-18 18q-46 45 -75 101l-55 -55q-66 -66 -66 -159q0 -95 66 -159z" />
    <glyph glyph-name="phone" unicode="&#xe145;" 
d="M200 100v953q0 21 30 46t81 48t129 38t163 15t162 -15t127 -38t79 -48t29 -46v-953q0 -41 -29.5 -70.5t-70.5 -29.5h-600q-41 0 -70.5 29.5t-29.5 70.5zM300 300h600v700h-600v-700zM600 46q43 0 73.5 30.5t30.5 73.5t-30.5 73.5t-73.5 30.5t-73.5 -30.5t-30.5 -73.5
t30.5 -73.5t73.5 -30.5z" />
    <glyph glyph-name="pushpin" unicode="&#xe146;" 
d="M902 1185l283 -282q15 -15 15 -36t-15 -35q-14 -15 -35 -15t-35 15l-36 35l-279 -267v-300l-212 210l-208 -207l-380 -303l303 380l207 208l-210 212h300l267 279l-35 36q-15 14 -15 35t15 35q14 15 35 15t35 -15z" />
    <glyph glyph-name="usd" unicode="&#xe148;" 
d="M700 1029v-307l64 -14q34 -7 64 -16.5t70 -31.5t67.5 -52t47.5 -80.5t20 -112.5q0 -139 -89 -224t-244 -96v-77h-100v78q-152 17 -237 104q-40 40 -52.5 93.5t-15.5 139.5h139q5 -77 48.5 -126.5t117.5 -64.5v335q-6 1 -15.5 4t-11.5 3q-46 14 -79 26.5t-72 36t-62.5 52
t-40 72.5t-16.5 99q0 92 44 159.5t109 101t144 40.5v78h100v-79q38 -4 72.5 -13.5t75.5 -31.5t71 -53.5t51.5 -84t24.5 -118.5h-159q-8 72 -35 109.5t-101 50.5zM600 755v274q-61 -8 -97.5 -37.5t-36.5 -102.5q0 -29 8 -51t16.5 -34t29.5 -22.5t31 -13.5t38 -10q7 -2 11 -3z
M700 548v-311q170 18 170 151q0 64 -44 99.5t-126 60.5z" />
    <glyph glyph-name="gbp" unicode="&#xe149;" 
d="M700 600h-197q8 -50 -2.5 -115t-31.5 -94q-41 -59 -99 -113q35 11 84 18t70 7q32 1 102 -16t104 -17q76 0 136 30l50 -147q-41 -25 -80.5 -36.5t-59 -13t-61.5 -1.5q-23 0 -128 33t-155 29q-39 -4 -82 -17t-66 -25l-24 -11l-55 145l16.5 11t15.5 10t13.5 9.5t14.5 12
t14.5 14t17.5 18.5q48 55 54 126.5t-30 142.5h-221v100h166q-24 49 -44 104q-10 26 -14.5 55.5t-3 72.5t25 90t68.5 87q97 88 263 88q129 0 230 -89t101 -208h-153q0 52 -34 89.5t-74 51.5t-76 14q-37 0 -79 -14.5t-62 -35.5q-41 -44 -41 -101q0 -28 16.5 -69.5t28 -62.5
t41.5 -72h241v-100z" />
    <glyph glyph-name="sort" unicode="&#xe150;" 
d="M200 300h-198l298 -300l298 300h-198v900h-200v-900zM800 900h-198l298 300l298 -300h-198v-900h-200v900z" />
    <glyph glyph-name="sortbyalphabet" unicode="&#xe151;" 
d="M400 1200v-900h198l-298 -300l-298 300h198v900h200zM700 1200h300v-500h-100v100h-100v-100h-100v500zM901 900v200h-100v-200h100zM700 400v100h300v-200h-99v-100h-100v100h99v100h-200zM800 200v-100h200v-100h-300v200h100z" />
    <glyph glyph-name="sortbyalphabetalt" unicode="&#xe152;" 
d="M400 1200v-900h198l-298 -300l-298 300h198v900h200zM700 1200h300v-200h-99v-100h-100v100h99v100h-200v100zM800 900v-100h200v-100h-300v200h100zM700 0v500h300v-500h-100v100h-100v-100h-100zM801 400v-200h100v200h-100z" />
    <glyph glyph-name="sortbyorder" unicode="&#xe153;" 
d="M200 300h-198l298 -300l298 300h-198v900h-200v-900zM1000 700h-100v400h-100v100h200v-500zM800 100v400h300v-500h-100v100h-200zM901 200h100v200h-100v-200z" />
    <glyph glyph-name="sortbyorderalt" unicode="&#xe154;" 
d="M200 300h-198l298 -300l298 300h-198v900h-200v-900zM800 800v400h300v-500h-100v100h-200zM901 900h100v200h-100v-200zM1000 0h-100v400h-100v100h200v-500z" />
    <glyph glyph-name="sortbyattributes" unicode="&#xe155;" 
d="M200 300h-198l298 -300l298 300h-198v900h-200v-900zM700 1200h200v-200h-200v200zM700 900h300v-200h-300v200zM700 600h400v-200h-400v200zM700 300h500v-200h-500v200z" />
    <glyph glyph-name="sortbyattributesalt" unicode="&#xe156;" 
d="M200 300h-198l298 -300l298 300h-198v900h-200v-900zM700 1200h500v-200h-500v200zM700 900h400v-200h-400v200zM700 600h300v-200h-300v200zM700 300h200v-200h-200v200z" />
    <glyph glyph-name="unchecked" unicode="&#xe157;" 
d="M400 1100h300q162 0 281 -118.5t119 -281.5v-300q0 -165 -118.5 -282.5t-281.5 -117.5h-300q-165 0 -282.5 117.5t-117.5 282.5v300q0 165 117.5 282.5t282.5 117.5zM900 300v500q0 41 -29.5 70.5t-70.5 29.5h-500q-41 0 -70.5 -29.5t-29.5 -70.5v-500q0 -41 29.5 -70.5
t70.5 -29.5h500q41 0 70.5 29.5t29.5 70.5z" />
    <glyph glyph-name="expand" unicode="&#xe158;" 
d="M700 0h-300q-163 0 -281.5 117.5t-118.5 282.5v300q0 163 119 281.5t281 118.5h300q165 0 282.5 -117.5t117.5 -282.5v-300q0 -165 -117.5 -282.5t-282.5 -117.5zM900 300v500q0 41 -29.5 70.5t-70.5 29.5h-500q-41 0 -70.5 -29.5t-29.5 -70.5v-500q0 -41 29.5 -70.5
t70.5 -29.5h500q41 0 70.5 29.5t29.5 70.5zM400 300l333 250l-333 250v-500z" />
    <glyph glyph-name="collapse" unicode="&#xe159;" 
d="M0 400v300q0 163 117.5 281.5t282.5 118.5h300q163 0 281.5 -119t118.5 -281v-300q0 -165 -117.5 -282.5t-282.5 -117.5h-300q-165 0 -282.5 117.5t-117.5 282.5zM300 200h500q41 0 70.5 29.5t29.5 70.5v500q0 41 -29.5 70.5t-70.5 29.5h-500q-41 0 -70.5 -29.5
t-29.5 -70.5v-500q0 -41 29.5 -70.5t70.5 -29.5zM300 700l250 -333l250 333h-500z" />
    <glyph glyph-name="collapsetop" unicode="&#xe160;" 
d="M1100 700v-300q0 -162 -118.5 -281t-281.5 -119h-300q-165 0 -282.5 118.5t-117.5 281.5v300q0 165 117.5 282.5t282.5 117.5h300q165 0 282.5 -117.5t117.5 -282.5zM300 200h500q41 0 70.5 29.5t29.5 70.5v500q0 41 -29.5 70.5t-70.5 29.5h-500q-41 0 -70.5 -29.5
t-29.5 -70.5v-500q0 -41 29.5 -70.5t70.5 -29.5zM300 400h500l-250 333z" />
  </font>
</defs>
</svg>
